<svg width="1200" height="480" viewBox="0 0 1200 480" fill="none" xmlns="http://www.w3.org/2000/svg">
  <defs>
    <linearGradient id="bg" x1="120" y1="40" x2="1080" y2="440" gradientUnits="userSpaceOnUse">
      <stop stop-color="#F5FAFF"/>
      <stop offset="1" stop-color="#EEF6FF"/>
    </linearGradient>
    <linearGradient id="phone" x1="0" y1="0" x2="1" y2="1">
      <stop stop-color="#4A90FF"/>
      <stop offset="1" stop-color="#2D72F4"/>
    </linearGradient>
    <linearGradient id="card" x1="0" y1="0" x2="1" y2="1">
      <stop stop-color="#FFFFFF"/>
      <stop offset="1" stop-color="#F8FBFF"/>
    </linearGradient>
    <filter id="shadow" x="-20%" y="-20%" width="140%" height="140%">
      <feDropShadow dx="0" dy="6" stdDeviation="10" flood-color="#98B6E5" flood-opacity="0.22"/>
    </filter>
  </defs>

  <rect width="1200" height="480" rx="28" fill="url(#bg)"/>

  <circle cx="170" cy="82" r="58" fill="#EAF3FF"/>
  <circle cx="1035" cy="400" r="82" fill="#EAF3FF"/>
  <circle cx="1090" cy="106" r="28" fill="#E0EEFF"/>

  <path d="M600 198L358 126" stroke="#8AB2F9" stroke-width="5" stroke-linecap="round" stroke-dasharray="10 10"/>
  <path d="M600 220L210 248" stroke="#8AB2F9" stroke-width="5" stroke-linecap="round" stroke-dasharray="10 10"/>
  <path d="M600 242L356 360" stroke="#8AB2F9" stroke-width="5" stroke-linecap="round" stroke-dasharray="10 10"/>
  <path d="M600 198L842 126" stroke="#8AB2F9" stroke-width="5" stroke-linecap="round" stroke-dasharray="10 10"/>
  <path d="M600 220L990 248" stroke="#8AB2F9" stroke-width="5" stroke-linecap="round" stroke-dasharray="10 10"/>
  <path d="M600 242L844 360" stroke="#8AB2F9" stroke-width="5" stroke-linecap="round" stroke-dasharray="10 10"/>

  <g filter="url(#shadow)">
    <rect x="540" y="118" width="120" height="242" rx="26" fill="url(#phone)"/>
    <rect x="558" y="152" width="84" height="145" rx="14" fill="#EAF2FF"/>
    <rect x="576" y="312" width="48" height="8" rx="4" fill="#9DC0FF"/>
    <circle cx="600" cy="136" r="4" fill="#B7D1FF"/>
  </g>

  <g filter="url(#shadow)">
    <rect x="130" y="86" width="210" height="100" rx="16" fill="url(#card)"/>
    <rect x="142" y="98" width="186" height="52" rx="9" fill="#EAF3FF"/>
    <rect x="142" y="158" width="128" height="10" rx="5" fill="#C8DBFA"/>
    <circle cx="310" cy="163" r="7" fill="#2ECC71"/>
  </g>
  <g filter="url(#shadow)">
    <rect x="120" y="212" width="230" height="108" rx="16" fill="url(#card)"/>
    <rect x="134" y="226" width="201" height="58" rx="9" fill="#EAF3FF"/>
    <rect x="134" y="294" width="156" height="10" rx="5" fill="#C8DBFA"/>
    <circle cx="321" cy="299" r="7" fill="#2ECC71"/>
  </g>
  <g filter="url(#shadow)">
    <rect x="140" y="346" width="200" height="88" rx="16" fill="url(#card)"/>
    <rect x="154" y="360" width="172" height="44" rx="8" fill="#EAF3FF"/>
    <rect x="154" y="412" width="124" height="9" rx="4.5" fill="#C8DBFA"/>
    <circle cx="308" cy="416" r="6.5" fill="#2ECC71"/>
  </g>

  <g filter="url(#shadow)">
    <rect x="860" y="86" width="210" height="100" rx="16" fill="url(#card)"/>
    <rect x="872" y="98" width="186" height="52" rx="9" fill="#EAF3FF"/>
    <rect x="872" y="158" width="136" height="10" rx="5" fill="#C8DBFA"/>
    <circle cx="1040" cy="163" r="7" fill="#2ECC71"/>
  </g>
  <g filter="url(#shadow)">
    <rect x="850" y="212" width="230" height="108" rx="16" fill="url(#card)"/>
    <rect x="864" y="226" width="201" height="58" rx="9" fill="#EAF3FF"/>
    <rect x="864" y="294" width="166" height="10" rx="5" fill="#C8DBFA"/>
    <circle cx="1051" cy="299" r="7" fill="#2ECC71"/>
  </g>
  <g filter="url(#shadow)">
    <rect x="860" y="346" width="200" height="88" rx="16" fill="url(#card)"/>
    <rect x="874" y="360" width="172" height="44" rx="8" fill="#EAF3FF"/>
    <rect x="874" y="412" width="132" height="9" rx="4.5" fill="#C8DBFA"/>
    <circle cx="1034" cy="416" r="6.5" fill="#2ECC71"/>
  </g>

  <g>
    <rect x="488" y="58" width="224" height="38" rx="19" fill="#FFFFFF" opacity="0.92"/>
    <circle cx="516" cy="77" r="7" fill="#2ECC71"/>
    <text x="536" y="84" font-size="20" font-family="Arial, PingFang SC, Microsoft YaHei, sans-serif" fill="#4A6486">AI Coding Tasks · Multi-Device</text>
  </g>
</svg>
